<mxfile host="app.diagrams.net" modified="2024-03-25T14:11:19.438Z" agent="Mozilla/5.0 (X11; Linux x86_64) AppleWebKit/537.36 (KHTML, like Gecko) Chrome/122.0.0.0 Safari/537.36" version="24.0.5" etag="6NtMyRIPIKgE_vR17FIy" type="github">
  <diagram name="Page-1" id="Xl8V9aY5AdYRxTEQxaHl">
    <mxGraphModel>
      <root>
        <mxCell id="0" />
        <mxCell id="1" parent="0" />
      </root>
    </mxGraphModel>
  </diagram>
</mxfile>
